<mxfile host="app.diagrams.net" modified="2024-04-02T03:12:25.517Z" agent="Mozilla/5.0 (Windows NT 10.0; Win64; x64) AppleWebKit/537.36 (KHTML, like Gecko) Chrome/123.0.0.0 Safari/537.36" version="24.2.1" etag="ozrJ-IW7Agyiz3X4xVOp" type="github">
  <diagram name="페이지-1" id="BkDjTnzv6I5W9YhU9uMP">
    <mxGraphModel>
      <root>
        <mxCell id="0" />
        <mxCell id="1" parent="0" />
      </root>
    </mxGraphModel>
  </diagram>
</mxfile>
